<mxfile host="65bd71144e">
    <diagram id="Fng9TNd8abjmDsPKrcpH" name="Page-1">
        <mxGraphModel dx="748" dy="307" grid="1" gridSize="10" guides="1" tooltips="1" connect="1" arrows="1" fold="1" page="1" pageScale="1" pageWidth="850" pageHeight="1100" math="0" shadow="0">
            <root>
                <mxCell id="0"/>
                <mxCell id="1" parent="0"/>
                <mxCell id="5" value="" style="edgeStyle=none;html=1;" edge="1" parent="1" source="2" target="4">
                    <mxGeometry relative="1" as="geometry"/>
                </mxCell>
                <mxCell id="2" value="start" style="ellipse;whiteSpace=wrap;html=1;" vertex="1" parent="1">
                    <mxGeometry x="103" y="55" width="80" height="80" as="geometry"/>
                </mxCell>
                <mxCell id="7" value="" style="edgeStyle=none;html=1;" edge="1" parent="1" source="4" target="6">
                    <mxGeometry relative="1" as="geometry"/>
                </mxCell>
                <mxCell id="4" value="user input for &lt;br&gt;integer num" style="shape=parallelogram;perimeter=parallelogramPerimeter;whiteSpace=wrap;html=1;fixedSize=1;" vertex="1" parent="1">
                    <mxGeometry x="83" y="225" width="120" height="60" as="geometry"/>
                </mxCell>
                <mxCell id="9" value="" style="edgeStyle=none;html=1;" edge="1" parent="1" source="6" target="8">
                    <mxGeometry relative="1" as="geometry"/>
                </mxCell>
                <mxCell id="6" value="prime found is false (pfound)" style="whiteSpace=wrap;html=1;" vertex="1" parent="1">
                    <mxGeometry x="83" y="365" width="120" height="60" as="geometry"/>
                </mxCell>
                <mxCell id="11" value="true" style="edgeStyle=none;html=1;" edge="1" parent="1" source="8" target="10">
                    <mxGeometry relative="1" as="geometry"/>
                </mxCell>
                <mxCell id="8" value="pfound == False?" style="rhombus;whiteSpace=wrap;html=1;" vertex="1" parent="1">
                    <mxGeometry x="103" y="495" width="80" height="80" as="geometry"/>
                </mxCell>
                <mxCell id="13" value="" style="edgeStyle=none;html=1;" edge="1" parent="1" source="10" target="12">
                    <mxGeometry relative="1" as="geometry"/>
                </mxCell>
                <mxCell id="10" value="increment pnumber by 1" style="whiteSpace=wrap;html=1;" vertex="1" parent="1">
                    <mxGeometry x="243" y="505" width="120" height="60" as="geometry"/>
                </mxCell>
                <mxCell id="15" value="i &amp;lt; number -1" style="edgeStyle=none;html=1;" edge="1" parent="1" source="12" target="14">
                    <mxGeometry relative="1" as="geometry"/>
                </mxCell>
                <mxCell id="22" value="i &amp;gt;= pnumber - 1" style="edgeStyle=orthogonalEdgeStyle;html=1;" edge="1" parent="1" source="12" target="21">
                    <mxGeometry relative="1" as="geometry"/>
                </mxCell>
                <mxCell id="12" value="iterate (i) through every integer from 2 to pnumber -1" style="rhombus;whiteSpace=wrap;html=1;" vertex="1" parent="1">
                    <mxGeometry x="453" y="480" width="110" height="110" as="geometry"/>
                </mxCell>
                <mxCell id="17" value="true" style="edgeStyle=none;html=1;" edge="1" parent="1" source="14" target="16">
                    <mxGeometry relative="1" as="geometry"/>
                </mxCell>
                <mxCell id="14" value="pnumber % i == 0?" style="rhombus;whiteSpace=wrap;html=1;" vertex="1" parent="1">
                    <mxGeometry x="653" y="480" width="110" height="110" as="geometry"/>
                </mxCell>
                <mxCell id="18" style="edgeStyle=orthogonalEdgeStyle;html=1;exitX=0;exitY=0.5;exitDx=0;exitDy=0;entryX=0.5;entryY=0;entryDx=0;entryDy=0;" edge="1" parent="1" source="16" target="8">
                    <mxGeometry relative="1" as="geometry">
                        <Array as="points">
                            <mxPoint x="403" y="375"/>
                            <mxPoint x="403" y="435"/>
                            <mxPoint x="143" y="435"/>
                        </Array>
                    </mxGeometry>
                </mxCell>
                <mxCell id="16" value="break&lt;br&gt;(not prime)" style="whiteSpace=wrap;html=1;" vertex="1" parent="1">
                    <mxGeometry x="648" y="345" width="120" height="60" as="geometry"/>
                </mxCell>
                <mxCell id="24" value="false" style="edgeStyle=orthogonalEdgeStyle;html=1;" edge="1" parent="1" target="23">
                    <mxGeometry relative="1" as="geometry">
                        <mxPoint x="143" y="575" as="sourcePoint"/>
                    </mxGeometry>
                </mxCell>
                <mxCell id="27" style="edgeStyle=orthogonalEdgeStyle;html=1;exitX=0;exitY=0.5;exitDx=0;exitDy=0;entryX=1;entryY=0;entryDx=0;entryDy=0;" edge="1" parent="1" source="21" target="8">
                    <mxGeometry relative="1" as="geometry">
                        <mxPoint x="230" y="590" as="targetPoint"/>
                        <Array as="points">
                            <mxPoint x="448" y="620"/>
                            <mxPoint x="183" y="620"/>
                            <mxPoint x="183" y="515"/>
                        </Array>
                    </mxGeometry>
                </mxCell>
                <mxCell id="21" value="factor still not found&lt;br&gt;pfound = true" style="whiteSpace=wrap;html=1;" vertex="1" parent="1">
                    <mxGeometry x="448" y="695" width="120" height="60" as="geometry"/>
                </mxCell>
                <mxCell id="26" value="" style="edgeStyle=orthogonalEdgeStyle;html=1;" edge="1" parent="1" source="23" target="25">
                    <mxGeometry relative="1" as="geometry"/>
                </mxCell>
                <mxCell id="23" value="output pnumber" style="whiteSpace=wrap;html=1;" vertex="1" parent="1">
                    <mxGeometry x="83" y="655" width="120" height="60" as="geometry"/>
                </mxCell>
                <mxCell id="25" value="end" style="ellipse;whiteSpace=wrap;html=1;" vertex="1" parent="1">
                    <mxGeometry x="103" y="785" width="80" height="80" as="geometry"/>
                </mxCell>
            </root>
        </mxGraphModel>
    </diagram>
</mxfile>